<svg xmlns="http://www.w3.org/2000/svg" viewBox="0 0 512 512">
  <style>
    .ribbon-outer { fill: #B53000 }
    .ribbon-inner { fill: #E24800 }
    .medal-edges { fill: #D3975F }
    .medal-base { fill: #B87333 }
    .medal-bevel {fill: #A0642C }
  </style>
  <path class="ribbon-outer" d="M107.829 308.55l-16.488-6.83-90.71 90.71 30.518 8.036 76.68-76.68"/>
  <path fill="#FFF" d="M107.829 323.786l-76.68 76.68 11.738 3.091 64.942-64.943"/>
  <path class="ribbon-outer" d="M200.899 392.747l-88.734 88.735L120.2 512l114.355-114.355-13.321-13.321"/>
  <path fill="#FFF" d="M175.81 403.139l-.039-.093-66.698 66.698 3.092 11.738 88.734-88.735"/>
  <path class="ribbon-inner" d="M156.995 357.715h-49.166v-19.101l-64.942 64.943 52.392 13.796 13.794 52.391 66.698-66.698"/>
  <path class="ribbon-outer" d="M290.766 384.324l-13.322 13.321L391.8 512l8.035-30.518-88.735-88.735"/>
  <path fill="#FFF" d="M336.189 403.139L311.1 392.747l88.735 88.735 3.091-11.738-66.698-66.698"/>
  <path class="ribbon-outer" d="M420.659 301.72l-16.488 6.83v15.237l76.679 76.679 30.519-8.036"/>
  <path fill="#FFF" d="M404.171 338.615l64.942 64.942 11.737-3.091-76.679-76.679"/>
  <path class="ribbon-inner" d="M404.171 357.715h-49.166l-18.777 45.331 66.698 66.698 13.795-52.391 52.392-13.796-64.942-64.942"/>
  <path class="medal-edges" d="M465.545 209.545l-34.766-34.766 18.815-45.423-45.423-18.816V61.374h-49.166L336.189 15.95l-45.423 18.816L256 0l-34.766 34.766L175.81 15.95l-18.815 45.424h-49.166v49.166l-45.423 18.816 18.814 45.423-34.766 34.766L81.22 244.31l-18.814 45.424 28.935 11.986 16.488 6.83v49.165h49.166l18.776 45.331.039.093 25.089-10.392 20.335-8.423 13.321 13.321L256 419.09l21.444-21.445 13.322-13.321 20.334 8.423 25.089 10.392.039-.093 18.777-45.331h49.166V308.55l16.488-6.83 28.935-11.986-18.815-45.424"/>
  <circle cx="256" cy="209.545" r="156.508" class="medal-base"/>
  <circle cx="256" cy="209.545" r="134.062" class="medal-bevel"/>
  <circle cx="256" cy="209.545" r="101.048" class="medal-base"/>
</svg>